# ASF file generated by Tido's ASF writer for MATLAB.
:version 1.10
:name VICON
:units
  mass 1
  length 0.45000000000000001
  angle deg
:documentation
   .ast/.asf automatically generated from VICON data using
   VICON BodyBuilder and BodyLanguage model FoxedUp or BRILLIANT.MOD
:root
  axis xyz
  order tx ty tz rx ry rz 
  position 0 0 0
  orientation 0 0 0
:bonedata
  begin
    id 1
    name lhipjoint
    direction 0.44017800000000001 -0.82263900000000001 0.359871
    length 1.1390085000000001
    axis 0 0 0 xyz
  end
  begin
    id 2
    name lfemur
    direction 0.34201999999999999 -0.939693 0
    length 3.5465939999999998
    axis 0 0 20 xyz
    dof rx ry rz 
    limits (-160 20)
           (-70 70)
           (-60 70)
  end
  begin
    id 3
    name ltibia
    direction 0.34201999999999999 -0.939693 0
    length 3.7970234999999999
    axis 0 0 20 xyz
    dof rx 
    limits (-10 170)
  end
  begin
    id 4
    name lfoot
    direction 0.088635099999999994 -0.24352299999999999 0.96583699999999995
    length 1.1853629999999999
    axis -90 7.62852e-016 20 xyz
    dof rx rz 
    limits (-45 90)
           (-70 20)
  end
  begin
    id 5
    name ltoes
    direction 1.53703e-011 -4.2171700000000001e-011 1
    length 0.59142150000000004
    axis -90 7.62852e-016 20 xyz
    dof rx 
    limits (-90 20)
  end
  begin
    id 6
    name rhipjoint
    direction -0.399779 -0.83977299999999999 0.367367
    length 1.115766
    axis 0 0 0 xyz
  end
  begin
    id 7
    name rfemur
    direction -0.34201999999999999 -0.939693 0
    length 3.4866269999999999
    axis 0 0 -20 xyz
    dof rx ry rz 
    limits (-160 20)
           (-70 70)
           (-70 60)
  end
  begin
    id 8
    name rtibia
    direction -0.34201999999999999 -0.939693 0
    length 3.9349440000000002
    axis 0 0 -20 xyz
    dof rx 
    limits (-10 170)
  end
  begin
    id 9
    name rfoot
    direction -0.108514 -0.29813899999999999 0.94833400000000001
    length 1.1974590000000001
    axis -90 -7.62852e-016 -20 xyz
    dof rx rz 
    limits (-45 90)
           (-20 70)
  end
  begin
    id 10
    name rtoes
    direction -1.5339199999999999e-011 -4.2207699999999999e-011 1
    length 0.59392350000000005
    axis -90 -7.62852e-016 -20 xyz
    dof rx 
    limits (-90 20)
  end
  begin
    id 11
    name lowerback
    direction 0.011325699999999999 0.99986600000000003 0.0118602
    length 1.164123
    axis 0 0 0 xyz
    dof rx ry rz 
    limits (-20 45)
           (-30 30)
           (-30 30)
  end
  begin
    id 12
    name upperback
    direction -0.016474699999999998 0.99519299999999999 -0.096537499999999998
    length 1.135656
    axis 0 0 0 xyz
    dof rx ry rz 
    limits (-20 45)
           (-30 30)
           (-30 30)
  end
  begin
    id 13
    name thorax
    direction -0.019430099999999999 0.99433000000000005 -0.10455200000000001
    length 1.1524455
    axis 0 0 0 xyz
    dof rx ry rz 
    limits (-20 45)
           (-30 30)
           (-30 30)
  end
  begin
    id 14
    name lowerneck
    direction 0.014854300000000001 0.995587 -0.092657000000000003
    length 0.772119
    axis 0 0 0 xyz
    dof rx ry rz 
    limits (-20 45)
           (-30 30)
           (-30 30)
  end
  begin
    id 15
    name upperneck
    direction -0.0135467 0.99365599999999998 -0.111639
    length 0.76021650000000007
    axis 0 0 0 xyz
    dof rx ry rz 
    limits (-20 45)
           (-30 30)
           (-30 30)
  end
  begin
    id 16
    name head
    direction -0.0061534900000000002 0.99954699999999996 -0.029447999999999998
    length 0.78578999999999999
    axis 0 0 0 xyz
    dof rx ry rz 
    limits (-20 45)
           (-30 30)
           (-30 30)
  end
  begin
    id 17
    name lclavicle
    direction 0.98826700000000001 0.14988499999999999 0.029371299999999999
    length 2.012499
    axis 0 0 0 xyz
    dof ry rz 
    limits (-20 10)
           (0 20)
  end
  begin
    id 18
    name lhumerus
    direction 1 -4.4898600000000001e-011 -1.1483300000000001e-027
    length 2.4171659999999999
    axis 180 -30 -90 xyz
    dof rx ry rz 
    limits (-60 90)
           (-90 90)
           (-90 90)
  end
  begin
    id 19
    name lradius
    direction 0.99999800000000005 0.00170963 -0.00098705499999999992
    length 1.773954
    axis 180 -30 -90 xyz
    dof rx 
    limits (-10 170)
  end
  begin
    id 20
    name lwrist
    direction 0.99999800000000005 7.53149e-005 -0.00194706
    length 0.88697700000000002
    axis 4.6505600000000004e-015 90 90 xyz
    dof ry 
    limits (-180 0)
  end
  begin
    id 21
    name lhand
    direction 1 -4.48973e-011 -1.3174599999999999e-026
    length 0.5306265
    axis 8.4064999999999996e-015 90 90 xyz
    dof rx rz 
    limits (-90 90)
           (-45 45)
  end
  begin
    id 22
    name lfingers
    direction 1 -4.49107e-011 -2.6349199999999999e-026
    length 0.42780555000000003
    axis 1.6812999999999999e-014 90 90 xyz
    dof rx 
    limits (0 90)
  end
  begin
    id 23
    name lthumb
    direction 0.70710700000000004 -6.3504800000000005e-011 0.70710700000000004
    length 0.6142455
    axis -90 45 2.8529899999999998e-015 xyz
    dof rx rz 
    limits (-45 45)
           (-45 45)
  end
  begin
    id 24
    name rclavicle
    direction -0.996699 0.064289499999999999 -0.049572499999999999
    length 2.0817494999999999
    axis 0 0 0 xyz
    dof ry rz 
    limits (-10 20)
           (-20 0)
  end
  begin
    id 25
    name rhumerus
    direction -1 -4.4891899999999998e-011 -2.4105900000000001e-027
    length 2.474145
    axis 180 30 90 xyz
    dof rx ry rz 
    limits (-90 60)
           (-90 90)
           (-90 90)
  end
  begin
    id 26
    name rradius
    direction -0.99999899999999997 0.0011810099999999999 -0.00068185800000000003
    length 1.5677145000000001
    axis 180 30 90 xyz
    dof rx 
    limits (-10 170)
  end
  begin
    id 27
    name rwrist
    direction -0.99999899999999997 0.000321823 -0.00132288
    length 0.78385499999999997
    axis 4.6505600000000004e-015 -90 -90 xyz
    dof ry 
    limits (-180 0)
  end
  begin
    id 28
    name rhand
    direction -1 -4.4902199999999998e-011 -1.3174599999999999e-026
    length 0.60719400000000001
    axis 8.4064999999999996e-015 -90 -90 xyz
    dof rx rz 
    limits (-90 90)
           (-45 45)
  end
  begin
    id 29
    name rfingers
    direction -1 -4.4917800000000002e-011 -2.6349199999999999e-026
    length 0.48953249999999998
    axis 1.6812999999999999e-014 -90 -90 xyz
    dof rx 
    limits (0 90)
  end
  begin
    id 30
    name rthumb
    direction -0.70710700000000004 -6.3471300000000002e-011 0.70710700000000004
    length 0.70287750000000004
    axis -90 -45 -2.8529899999999998e-015 xyz
    dof rx rz 
    limits (-45 45)
           (-45 45)
  end
:hierarchy
begin
  root lhipjoint rhipjoint lowerback 
  lhipjoint lfemur 
  lfemur ltibia 
  ltibia lfoot 
  lfoot ltoes 
  rhipjoint rfemur 
  rfemur rtibia 
  rtibia rfoot 
  rfoot rtoes 
  lowerback upperback 
  upperback thorax 
  thorax lowerneck lclavicle rclavicle 
  lowerneck upperneck 
  upperneck head 
  lclavicle lhumerus 
  lhumerus lradius 
  lradius lwrist 
  lwrist lhand lthumb 
  lhand lfingers 
  rclavicle rhumerus 
  rhumerus rradius 
  rradius rwrist 
  rwrist rhand rthumb 
  rhand rfingers 
end

# AMC file generated by Tido's AMC writer for MATLAB on 27-Nov-2005 at 18:24:20
# Corresponding ASF file: S:\data_MoCap\MoCaDaDB\HDM\Bonn_ASF_AMC_Use IK_on\björn\bjorn.asf
# Number of frames: 542
# Sampling rate: 120
:fully-specified
:degrees
509
root 14.096565 8.6157900000000005 -0.91970550000000006 -2.8194900000000001 7.7336200000000002 358.92899999999997 
lfemur -18.68 6.2010800000000001 -17.9085 
ltibia 34.747100000000003 
lfoot -6.7633799999999997 -10.6813 
ltoes -8.75075 
rfemur -2.23298 -3.73874 15.999499999999999 
rtibia 50.824199999999998 
rfoot 4.0734199999999996 18.914999999999999 
rtoes -12.168200000000001 
lowerback -3.7540800000000001 0.82778499999999999 -2.6897000000000002 
upperback 11.0138 1.80054 -2.7958599999999998 
thorax 14.1823 0.78542000000000001 -1.29718 
lowerneck 0.73184700000000003 -3.9556 -0.445517 
upperneck 19.609400000000001 -6.2957599999999996 5.8322000000000003 
head 6.0086300000000001 -2.68214 1.6090100000000001 
lclavicle -8.3489599999999999e-015 2.22639e-014 
lhumerus -8.7282499999999992 18.258500000000002 79.350200000000001 
lradius 15.3748 
lwrist -43.255699999999997 
lhand -15.989699999999999 -6.4583399999999997 
lfingers 7.1250200000000001 
lthumb 10.210100000000001 23.273900000000001 
rclavicle -8.3489599999999999e-015 2.22639e-014 
rhumerus -29.049600000000002 -33.516800000000003 -80.692400000000006 
rradius 17.736899999999999 
rwrist 24.7334 
rhand -5.9279700000000002 9.3984100000000002 
rfingers 7.1250200000000001 
rthumb 19.901599999999998 -19.602599999999999 
510
root 14.105295 8.6192100000000007 -0.88931700000000002 -2.7027999999999999 7.6758600000000001 358.95400000000001 
lfemur -18.5185 6.3279399999999999 -17.945900000000002 
ltibia 34.696300000000001 
lfoot -6.9391800000000003 -10.776400000000001 
ltoes -8.4436 
rfemur -3.0458500000000002 -3.8192499999999998 15.8529 
rtibia 51.857700000000001 
rfoot 4.3503400000000001 18.499500000000001 
rtoes -12.6488 
lowerback -3.76213 0.708901 -2.9390100000000001 
upperback 10.994400000000001 1.67116 -2.8540299999999998 
thorax 14.160399999999999 0.70032399999999995 -1.24282 
lowerneck 0.75866299999999998 -3.9095300000000002 -0.39083400000000001 
upperneck 19.6175 -6.2347700000000001 5.81107 
head 6.0022500000000001 -2.6518999999999999 1.5969500000000001 
lclavicle -1.4312499999999999e-014 -2.3854199999999999e-014 
lhumerus -8.2889800000000005 16.317499999999999 79.263099999999994 
lradius 16.068000000000001 
lwrist -41.208799999999997 
lhand -16.497900000000001 -6.2985600000000002 
lfingers 7.1250200000000001 
lthumb 9.7197600000000008 23.4572 
rclavicle -1.4312499999999999e-014 -2.3854199999999999e-014 
rhumerus -29.736799999999999 -33.870899999999999 -80.1267 
rradius 17.4876 
rwrist 25.155200000000001 
rhand -5.6331300000000004 9.3560300000000005 
rfingers 7.1250200000000001 
rthumb 20.184999999999999 -19.615300000000001 
511
root 14.114025 8.6222250000000003 -0.85994550000000003 -2.6082800000000002 7.6186100000000003 358.97800000000001 
lfemur -18.343699999999998 6.4848800000000004 -17.9876 
ltibia 34.653500000000001 
lfoot -7.1168100000000001 -10.8841 
ltoes -8.3305299999999995 
rfemur -3.8281100000000001 -3.9171100000000001 15.7118 
rtibia 52.827800000000003 
rfoot 4.2051400000000001 18.108499999999999 
rtoes -13.8415 
lowerback -3.7489699999999999 0.60007600000000005 -3.17136 
upperback 10.9976 1.5543199999999999 -2.9160599999999999 
thorax 14.1541 0.62343199999999999 -1.2007699999999999 
lowerneck 0.78382399999999997 -3.87155 -0.31820999999999999 
upperneck 19.6004 -6.1863299999999999 5.8030999999999997 
head 5.9885700000000002 -2.6261800000000002 1.58541 
lclavicle -1.1927099999999999e-014 -1.5902800000000001e-015 
lhumerus -7.8263999999999996 14.4217 79.108099999999993 
lradius 16.754200000000001 
lwrist -39.220999999999997 
lhand -16.965399999999999 -6.1477000000000004 
lfingers 7.1250200000000001 
lthumb 9.26877 23.628599999999999 
rclavicle -1.1927099999999999e-014 -1.5902800000000001e-015 
rhumerus -30.388000000000002 -34.5227 -79.546700000000001 
rradius 17.259799999999998 
rwrist 25.842500000000001 
rhand -5.36151 9.33446 
rfingers 7.1250200000000001 
rthumb 20.446000000000002 -19.609100000000002 
512
root 14.122170000000001 8.6253299999999999 -0.83109149999999998 -2.4957400000000001 7.5509399999999998 358.98099999999999 
lfemur -18.199000000000002 6.6136400000000002 -18.0045 
ltibia 34.615000000000002 
lfoot -7.31752 -10.9306 
ltoes -8.0924200000000006 
rfemur -4.6377100000000002 -4.0089399999999999 15.6029 
rtibia 53.7361 
rfoot 3.6920700000000002 17.800899999999999 
rtoes -15.504300000000001 
lowerback -3.7591899999999998 0.48480099999999998 -3.3930799999999999 
upperback 10.9854 1.4255500000000001 -2.9588999999999999 
thorax 14.144399999999999 0.54054599999999997 -1.1448799999999999 
lowerneck 0.85927500000000001 -3.8277199999999998 -0.28738599999999997 
upperneck 19.578299999999999 -6.1255800000000002 5.7906599999999999 
head 5.9653099999999997 -2.5988099999999998 1.58117 
lclavicle -6.7586799999999996e-015 -1.9083300000000001e-014 
lhumerus -7.4159600000000001 12.6465 78.9315 
lradius 17.479600000000001 
lwrist -37.312600000000003 
lhand -17.385400000000001 -6.0288300000000001 
lfingers 7.1250200000000001 
lthumb 8.8634199999999996 23.765000000000001 
rclavicle -6.7586799999999996e-015 -1.9083300000000001e-014 
rhumerus -30.971299999999999 -35.357799999999997 -78.873800000000003 
rradius 16.954799999999999 
rwrist 26.724599999999999 
rhand -5.1712800000000003 9.3515599999999992 
rfingers 7.1250200000000001 
rthumb 20.628799999999998 -19.572199999999999 
